<?xml version="1.0" encoding="UTF-8"?>
<svg id="Calque_1" data-name="Calque 1" xmlns="http://www.w3.org/2000/svg" version="1.1" viewBox="0 0 595.28 841.89">
  <defs>
    <style>
      .cls-1, .cls-2 {
        font-family: Haettenschweiler, Haettenschweiler;
        font-size: 92px;
        letter-spacing: .06em;
      }

      .cls-1, .cls-3 {
        fill: #fff;
      }

      .cls-4 {
        fill: #ffed00;
      }

      .cls-4, .cls-3 {
        stroke-width: 0px;
      }

      .cls-2 {
        fill: #e30613;
      }

      .cls-5 {
        fill: #1d1d1b;
        stroke: #fff;
        stroke-miterlimit: 10;
      }
    </style>
  </defs>
  <rect class="cls-5" x="95.4" y="343" width="450.6" height="243"/>
  <g>
    <rect class="cls-5" x="90.18" y="213.92" width="450.6" height="49" transform="translate(-30.08 46.17) rotate(-7.99)"/>
    <polygon class="cls-3" points="112.49 291.65 159.37 285.07 208.74 229.05 162.75 235.12 112.49 291.65"/>
    <polygon class="cls-3" points="215.49 277.2 262.38 270.62 311.74 214.59 265.75 220.66 215.49 277.2"/>
    <polygon class="cls-3" points="318.5 262.74 365.38 256.16 414.74 200.14 368.76 206.2 318.5 262.74"/>
    <polygon class="cls-3" points="421.5 248.28 468.38 241.7 517.74 185.68 471.76 191.75 421.5 248.28"/>
  </g>
  <g>
    <rect class="cls-5" x="95.4" y="294" width="450.6" height="49" transform="translate(641.4 637) rotate(-180)"/>
    <polygon class="cls-3" points="529.12 343 481.78 343 425.11 294.38 471.49 294 529.12 343"/>
    <polygon class="cls-3" points="425.11 343 377.76 343 321.1 294.38 367.48 294 425.11 343"/>
    <polygon class="cls-3" points="321.1 343 273.75 343 217.08 294.38 263.46 294 321.1 343"/>
    <polygon class="cls-3" points="217.08 343 169.74 343 113.07 294.38 159.45 294 217.08 343"/>
  </g>
  <g>
    <text class="cls-1" transform="translate(132.39 491.25)"><tspan x="0" y="0">CINEMATICS</tspan></text>
    <text class="cls-2" transform="translate(135.39 489.25)"><tspan x="0" y="0">CINEMATICS</tspan></text>
  </g>
  <polygon class="cls-4" points="121.78 470.79 113.62 465.03 105.62 471.01 108.58 461.47 100.42 455.72 110.4 455.58 113.36 446.04 116.57 455.49 126.56 455.35 118.56 461.33 121.78 470.79"/>
  <polygon class="cls-4" points="534.52 470.79 526.36 465.03 518.36 471.01 521.32 461.47 513.16 455.72 523.14 455.58 526.1 446.04 529.31 455.49 539.3 455.35 531.3 461.33 534.52 470.79"/>
  <text/>
</svg>